<?xml version="1.0" encoding="iso-8859-1"?>
<!-- Generator: Adobe Illustrator 19.0.0, SVG Export Plug-In . SVG Version: 6.00 Build 0)  -->
<svg version="1.1" id="Layer_1" xmlns="http://www.w3.org/2000/svg" xmlns:xlink="http://www.w3.org/1999/xlink" x="0px" y="0px"
	 viewBox="0 0 512 512" style="enable-background:new 0 0 512 512;" xml:space="preserve">
<g>
	<g>
		<path d="M202.7,198.69c-86.38,0-156.656,70.275-156.656,156.655S116.32,512,202.7,512s156.656-70.276,156.656-156.656
			S289.08,198.69,202.7,198.69z M202.7,461.776c-58.687,0-106.432-47.746-106.432-106.432S144.014,248.912,202.7,248.912
			s106.432,47.746,106.432,106.432S261.387,461.776,202.7,461.776z"/>
	</g>
</g>
<g>
	<g>
		<path d="M202.7,283.046c-39.865,0-72.299,32.433-72.299,72.299c0,39.865,32.434,72.299,72.299,72.299
			c39.865,0,72.299-32.434,72.299-72.299C274.999,315.48,242.566,283.046,202.7,283.046z"/>
	</g>
</g>
<g>
	<g>
		<path d="M420.623,0c-24.997,0-45.332,20.336-45.332,45.332c0,17.409,17.324,40.647,28.266,53.586v35.507
			c0,20.63-16.784,37.415-37.415,37.415s-37.415-16.784-37.415-37.415V84.977c0-39.451-32.096-71.548-71.547-71.548
			s-71.548,32.097-71.548,71.548v80.352c11.228-1,22.273-1.057,34.133,0V84.977c0-20.63,16.784-37.415,37.415-37.415
			s37.414,16.785,37.414,37.415v49.448c0,39.451,32.097,71.548,71.548,71.548c39.451,0,71.548-32.097,71.548-71.548V98.917
			c10.943-12.939,28.266-36.177,28.266-53.585C465.956,20.336,445.62,0,420.623,0z M420.617,65.246
			c-6.205-8.655-10.742-16.561-11.191-20.073c0.085-6.102,5.077-11.04,11.198-11.04c6.122,0,11.114,4.938,11.198,11.04
			C431.372,48.668,426.831,56.576,420.617,65.246z"/>
	</g>
</g>
<g>
</g>
<g>
</g>
<g>
</g>
<g>
</g>
<g>
</g>
<g>
</g>
<g>
</g>
<g>
</g>
<g>
</g>
<g>
</g>
<g>
</g>
<g>
</g>
<g>
</g>
<g>
</g>
<g>
</g>
</svg>
